<?xml version="1.0" encoding="UTF-8"?>
<svg id="Layer_1" xmlns="http://www.w3.org/2000/svg" version="1.1" viewBox="0 0 385.5 68.6">
  <!-- Generator: Adobe Illustrator 29.8.5, SVG Export Plug-In . SVG Version: 2.1.1 Build 2)  -->
  <defs>
    <style>
      .st0, .st1 {
        fill: none;
      }

      .st2 {
        fill: #d9e021;
      }

      .st3 {
        isolation: isolate;
      }

      .st4 {
        fill: #fff;
      }

      .st5 {
        fill: #ff0;
      }

      .st1 {
        stroke: #ff0;
        stroke-miterlimit: 10;
        stroke-width: 1.5px;
      }
    </style>
  </defs>
  <g class="st3">
    <g class="st3">
      <path class="st5" d="M85.5,22.3c-.1.1-.3.2-.5.2h-17.2c-.2,0-.3,0-.3.3v6.7c0,.2,0,.3.3.3h11c.2,0,.3,0,.5.2.1.1.2.3.2.5v6.4c0,.2,0,.3-.2.5s-.3.2-.5.2h-11c-.2,0-.3,0-.3.3v14.6c0,.2,0,.3-.2.5-.1.1-.3.2-.5.2h-7.8c-.2,0-.3,0-.5-.2-.1-.1-.2-.3-.2-.5V15.4c0-.2,0-.3.2-.5.1-.1.3-.2.5-.2h25.9c.2,0,.3,0,.5.2.1.1.2.3.2.5v6.5c0,.2,0,.3-.2.5Z"/>
      <path class="st5" d="M95.9,51.9c-2.2-1.1-3.9-2.7-5.2-4.7-1.2-2-1.8-4.4-1.8-7.1V15.4c0-.2,0-.3.2-.5s.3-.2.5-.2h7.8c.2,0,.3,0,.5.2.1.1.2.3.2.5v24.7c0,1.7.5,3.1,1.5,4.1,1,1,2.4,1.6,4,1.6s3-.5,4-1.6c1-1,1.5-2.4,1.5-4.1V15.4c0-.2,0-.3.2-.5.1-.1.3-.2.5-.2h7.8c.2,0,.3,0,.5.2.1.1.2.3.2.5v24.7c0,2.7-.6,5-1.8,7.1-1.2,2-2.9,3.6-5.1,4.7-2.2,1.1-4.8,1.7-7.7,1.7s-5.4-.6-7.7-1.7Z"/>
      <path class="st5" d="M129.3,52.1c-2.2-1-4-2.4-5.2-4.2-1.2-1.8-1.8-3.9-1.8-6.3v-1c0-.2,0-.3.2-.5.1-.1.3-.2.5-.2h7.6c.2,0,.3,0,.5.2.1.1.2.3.2.5v.7c0,1.2.6,2.3,1.8,3.2,1.2.9,2.8,1.3,4.9,1.3s2.8-.3,3.6-1c.8-.7,1.2-1.5,1.2-2.4s-.2-1.3-.7-1.8c-.5-.5-1.1-.8-1.8-1.2-.8-.3-2-.7-3.6-1.3-.2-.1-.4-.2-.7-.2-.2,0-.4-.1-.6-.2-2.4-.8-4.4-1.6-6.2-2.5-1.8-.9-3.3-2.1-4.5-3.7-1.2-1.6-1.9-3.6-1.9-5.9s.6-4.3,1.8-6c1.2-1.7,2.8-3,5-3.9,2.1-.9,4.5-1.4,7.2-1.4s5.3.5,7.6,1.5c2.2,1,4,2.5,5.3,4.3,1.3,1.9,1.9,4,1.9,6.4v.8c0,.2,0,.3-.2.5-.1.1-.3.2-.5.2h-7.6c-.2,0-.3,0-.5-.2-.1-.1-.2-.3-.2-.5v-.4c0-1.3-.6-2.4-1.7-3.4-1.1-1-2.7-1.5-4.6-1.5s-2.5.3-3.3.9c-.8.6-1.2,1.4-1.2,2.5s.3,1.5.8,2c.5.5,1.3,1,2.4,1.5,1.1.5,2.7,1.1,5,1.8,2.6.9,4.6,1.6,6,2.3,1.4.7,2.8,1.7,4,3.2,1.3,1.5,1.9,3.4,1.9,5.8s-.6,4.4-1.8,6.1-2.9,3-5.1,4c-2.2.9-4.7,1.4-7.6,1.4s-5.7-.5-7.9-1.5Z"/>
      <path class="st5" d="M156.3,52.9c-.1-.1-.2-.3-.2-.5V15.4c0-.2,0-.3.2-.5.1-.1.3-.2.5-.2h7.8c.2,0,.3,0,.5.2.1.1.2.3.2.5v37.1c0,.2,0,.3-.2.5-.1.1-.3.2-.5.2h-7.8c-.2,0-.3,0-.5-.2Z"/>
      <path class="st5" d="M177.2,52c-2.2-1.2-4-2.9-5.2-5-1.2-2.2-1.9-4.7-1.9-7.5v-11c0-2.8.6-5.2,1.9-7.4,1.2-2.1,3-3.8,5.2-5,2.2-1.2,4.9-1.8,7.8-1.8s5.6.6,7.8,1.8c2.3,1.2,4,2.9,5.3,5,1.2,2.1,1.9,4.6,1.9,7.4v11c0,2.9-.6,5.4-1.9,7.5-1.2,2.2-3,3.8-5.3,5-2.3,1.2-4.9,1.8-7.8,1.8s-5.6-.6-7.8-1.8ZM189.2,44.2c1.1-1.1,1.6-2.7,1.6-4.6v-11.4c0-1.9-.5-3.4-1.6-4.5-1.1-1.2-2.5-1.7-4.3-1.7s-3.1.6-4.2,1.7c-1.1,1.2-1.6,2.7-1.6,4.5v11.4c0,1.9.5,3.4,1.6,4.6,1.1,1.1,2.5,1.7,4.2,1.7s3.2-.6,4.3-1.7Z"/>
      <path class="st5" d="M226.7,14.9c.1-.1.3-.2.5-.2h7.8c.2,0,.3,0,.5.2.1.1.2.3.2.5v37.1c0,.2,0,.3-.2.5s-.3.2-.5.2h-7.5c-.4,0-.6-.1-.8-.4l-12.6-21c0-.1-.1-.2-.2-.1,0,0-.1.1-.1.2v20.6c0,.2,0,.3-.1.5s-.3.2-.5.2h-7.8c-.2,0-.3,0-.5-.2-.1-.1-.2-.3-.2-.5V15.4c0-.2,0-.3.2-.5.1-.1.3-.2.5-.2h7.5c.4,0,.6.1.8.4l12.6,20.9c0,.1.1.2.2.1,0,0,.1-.1.1-.2V15.4c0-.2,0-.3.1-.5Z"/>
      <path class="st5" d="M258.4,51.9c-2.2-1.1-3.9-2.7-5.2-4.8s-1.8-4.5-1.8-7.2v-11.9c0-2.7.6-5.1,1.8-7.2,1.2-2.1,2.9-3.7,5.2-4.8,2.2-1.1,4.8-1.7,7.7-1.7s5.5.5,7.7,1.6c2.2,1.1,3.9,2.6,5.2,4.6,1.2,2,1.8,4.2,1.8,6.8s0,.3-.2.4c-.1.1-.3.2-.5.2l-7.8.5c-.4,0-.7-.2-.7-.6,0-1.7-.5-3.1-1.5-4.1-1-1-2.4-1.5-4.1-1.5s-3,.5-4.1,1.6-1.5,2.4-1.5,4.1v12.5c0,1.7.5,3,1.5,4.1,1,1,2.4,1.5,4.1,1.5s3-.5,4.1-1.5c1-1,1.5-2.4,1.5-4.1s.2-.6.7-.6l7.8.4c.2,0,.3,0,.5.2.1.1.2.2.2.4,0,2.6-.6,4.9-1.8,6.9-1.2,2-2.9,3.5-5.2,4.6-2.2,1.1-4.8,1.6-7.7,1.6s-5.5-.6-7.7-1.7Z"/>
      <path class="st5" d="M312.5,22.3c-.1.1-.3.2-.5.2h-17.2c-.2,0-.3,0-.3.3v6.7c0,.2,0,.3.3.3h11c.2,0,.3,0,.5.2.1.1.2.3.2.5v6.4c0,.2,0,.3-.2.5-.1.1-.3.2-.5.2h-11c-.2,0-.3,0-.3.3v7.2c0,.2,0,.3.3.3h17.2c.2,0,.3,0,.5.2s.2.3.2.5v6.5c0,.2,0,.3-.2.5-.1.1-.3.2-.5.2h-26c-.2,0-.3,0-.5-.2-.1-.1-.2-.3-.2-.5V15.4c0-.2,0-.3.2-.5.1-.1.3-.2.5-.2h26c.2,0,.3,0,.5.2.1.1.2.3.2.5v6.5c0,.2,0,.3-.2.5Z"/>
      <path class="st5" d="M317.3,52.9c-.1-.1-.2-.3-.2-.5V15.4c0-.2,0-.3.2-.5.1-.1.3-.2.5-.2h7.8c.2,0,.3,0,.5.2.1.1.2.3.2.5v29.7c0,.2,0,.3.3.3h17.5c.2,0,.3,0,.5.2.1.1.2.3.2.5v6.5c0,.2,0,.3-.2.5-.1.1-.3.2-.5.2h-26.2c-.2,0-.3,0-.5-.2Z"/>
      <path class="st5" d="M348.7,52.9c-.1-.1-.2-.3-.2-.5V15.4c0-.2,0-.3.2-.5.1-.1.3-.2.5-.2h7.8c.2,0,.3,0,.5.2.1.1.2.3.2.5v29.7c0,.2,0,.3.3.3h17.5c.2,0,.3,0,.5.2.1.1.2.3.2.5v6.5c0,.2,0,.3-.2.5-.1.1-.3.2-.5.2h-26.2c-.2,0-.3,0-.5-.2Z"/>
    </g>
    <g class="st3">
      <path class="st0" d="M85.5,22.3c-.1.1-.3.2-.5.2h-17.2c-.2,0-.3,0-.3.3v6.7c0,.2,0,.3.3.3h11c.2,0,.3,0,.5.2.1.1.2.3.2.5v6.4c0,.2,0,.3-.2.5s-.3.2-.5.2h-11c-.2,0-.3,0-.3.3v14.6c0,.2,0,.3-.2.5-.1.1-.3.2-.5.2h-7.8c-.2,0-.3,0-.5-.2-.1-.1-.2-.3-.2-.5V15.4c0-.2,0-.3.2-.5.1-.1.3-.2.5-.2h25.9c.2,0,.3,0,.5.2.1.1.2.3.2.5v6.5c0,.2,0,.3-.2.5Z"/>
      <path class="st0" d="M95.9,51.9c-2.2-1.1-3.9-2.7-5.2-4.7-1.2-2-1.8-4.4-1.8-7.1V15.4c0-.2,0-.3.2-.5s.3-.2.5-.2h7.8c.2,0,.3,0,.5.2.1.1.2.3.2.5v24.7c0,1.7.5,3.1,1.5,4.1,1,1,2.4,1.6,4,1.6s3-.5,4-1.6c1-1,1.5-2.4,1.5-4.1V15.4c0-.2,0-.3.2-.5.1-.1.3-.2.5-.2h7.8c.2,0,.3,0,.5.2.1.1.2.3.2.5v24.7c0,2.7-.6,5-1.8,7.1-1.2,2-2.9,3.6-5.1,4.7-2.2,1.1-4.8,1.7-7.7,1.7s-5.4-.6-7.7-1.7Z"/>
      <path class="st0" d="M129.3,52.1c-2.2-1-4-2.4-5.2-4.2-1.2-1.8-1.8-3.9-1.8-6.3v-1c0-.2,0-.3.2-.5.1-.1.3-.2.5-.2h7.6c.2,0,.3,0,.5.2.1.1.2.3.2.5v.7c0,1.2.6,2.3,1.8,3.2,1.2.9,2.8,1.3,4.9,1.3s2.8-.3,3.6-1c.8-.7,1.2-1.5,1.2-2.4s-.2-1.3-.7-1.8c-.5-.5-1.1-.8-1.8-1.2-.8-.3-2-.7-3.6-1.3-.2-.1-.4-.2-.7-.2-.2,0-.4-.1-.6-.2-2.4-.8-4.4-1.6-6.2-2.5-1.8-.9-3.3-2.1-4.5-3.7-1.2-1.6-1.9-3.6-1.9-5.9s.6-4.3,1.8-6c1.2-1.7,2.8-3,5-3.9,2.1-.9,4.5-1.4,7.2-1.4s5.3.5,7.6,1.5c2.2,1,4,2.5,5.3,4.3,1.3,1.9,1.9,4,1.9,6.4v.8c0,.2,0,.3-.2.5-.1.1-.3.2-.5.2h-7.6c-.2,0-.3,0-.5-.2-.1-.1-.2-.3-.2-.5v-.4c0-1.3-.6-2.4-1.7-3.4-1.1-1-2.7-1.5-4.6-1.5s-2.5.3-3.3.9c-.8.6-1.2,1.4-1.2,2.5s.3,1.5.8,2c.5.5,1.3,1,2.4,1.5,1.1.5,2.7,1.1,5,1.8,2.6.9,4.6,1.6,6,2.3,1.4.7,2.8,1.7,4,3.2,1.3,1.5,1.9,3.4,1.9,5.8s-.6,4.4-1.8,6.1-2.9,3-5.1,4c-2.2.9-4.7,1.4-7.6,1.4s-5.7-.5-7.9-1.5Z"/>
      <path class="st0" d="M156.3,52.9c-.1-.1-.2-.3-.2-.5V15.4c0-.2,0-.3.2-.5.1-.1.3-.2.5-.2h7.8c.2,0,.3,0,.5.2.1.1.2.3.2.5v37.1c0,.2,0,.3-.2.5-.1.1-.3.2-.5.2h-7.8c-.2,0-.3,0-.5-.2Z"/>
      <path class="st0" d="M177.2,52c-2.2-1.2-4-2.9-5.2-5-1.2-2.2-1.9-4.7-1.9-7.5v-11c0-2.8.6-5.2,1.9-7.4,1.2-2.1,3-3.8,5.2-5,2.2-1.2,4.9-1.8,7.8-1.8s5.6.6,7.8,1.8c2.3,1.2,4,2.9,5.3,5,1.2,2.1,1.9,4.6,1.9,7.4v11c0,2.9-.6,5.4-1.9,7.5-1.2,2.2-3,3.8-5.3,5-2.3,1.2-4.9,1.8-7.8,1.8s-5.6-.6-7.8-1.8ZM189.2,44.2c1.1-1.1,1.6-2.7,1.6-4.6v-11.4c0-1.9-.5-3.4-1.6-4.5-1.1-1.2-2.5-1.7-4.3-1.7s-3.1.6-4.2,1.7c-1.1,1.2-1.6,2.7-1.6,4.5v11.4c0,1.9.5,3.4,1.6,4.6,1.1,1.1,2.5,1.7,4.2,1.7s3.2-.6,4.3-1.7Z"/>
      <path class="st0" d="M226.7,14.9c.1-.1.3-.2.5-.2h7.8c.2,0,.3,0,.5.2.1.1.2.3.2.5v37.1c0,.2,0,.3-.2.5s-.3.2-.5.2h-7.5c-.4,0-.6-.1-.8-.4l-12.6-21c0-.1-.1-.2-.2-.1,0,0-.1.1-.1.2v20.6c0,.2,0,.3-.1.5s-.3.2-.5.2h-7.8c-.2,0-.3,0-.5-.2-.1-.1-.2-.3-.2-.5V15.4c0-.2,0-.3.2-.5.1-.1.3-.2.5-.2h7.5c.4,0,.6.1.8.4l12.6,20.9c0,.1.1.2.2.1,0,0,.1-.1.1-.2V15.4c0-.2,0-.3.1-.5Z"/>
      <path class="st0" d="M258.4,51.9c-2.2-1.1-3.9-2.7-5.2-4.8s-1.8-4.5-1.8-7.2v-11.9c0-2.7.6-5.1,1.8-7.2,1.2-2.1,2.9-3.7,5.2-4.8,2.2-1.1,4.8-1.7,7.7-1.7s5.5.5,7.7,1.6c2.2,1.1,3.9,2.6,5.2,4.6,1.2,2,1.8,4.2,1.8,6.8s0,.3-.2.4c-.1.1-.3.2-.5.2l-7.8.5c-.4,0-.7-.2-.7-.6,0-1.7-.5-3.1-1.5-4.1-1-1-2.4-1.5-4.1-1.5s-3,.5-4.1,1.6-1.5,2.4-1.5,4.1v12.5c0,1.7.5,3,1.5,4.1,1,1,2.4,1.5,4.1,1.5s3-.5,4.1-1.5c1-1,1.5-2.4,1.5-4.1s.2-.6.7-.6l7.8.4c.2,0,.3,0,.5.2.1.1.2.2.2.4,0,2.6-.6,4.9-1.8,6.9-1.2,2-2.9,3.5-5.2,4.6-2.2,1.1-4.8,1.6-7.7,1.6s-5.5-.6-7.7-1.7Z"/>
      <path class="st0" d="M312.5,22.3c-.1.1-.3.2-.5.2h-17.2c-.2,0-.3,0-.3.3v6.7c0,.2,0,.3.3.3h11c.2,0,.3,0,.5.2.1.1.2.3.2.5v6.4c0,.2,0,.3-.2.5-.1.1-.3.2-.5.2h-11c-.2,0-.3,0-.3.3v7.2c0,.2,0,.3.3.3h17.2c.2,0,.3,0,.5.2s.2.3.2.5v6.5c0,.2,0,.3-.2.5-.1.1-.3.2-.5.2h-26c-.2,0-.3,0-.5-.2-.1-.1-.2-.3-.2-.5V15.4c0-.2,0-.3.2-.5.1-.1.3-.2.5-.2h26c.2,0,.3,0,.5.2.1.1.2.3.2.5v6.5c0,.2,0,.3-.2.5Z"/>
      <path class="st0" d="M317.3,52.9c-.1-.1-.2-.3-.2-.5V15.4c0-.2,0-.3.2-.5.1-.1.3-.2.5-.2h7.8c.2,0,.3,0,.5.2.1.1.2.3.2.5v29.7c0,.2,0,.3.3.3h17.5c.2,0,.3,0,.5.2.1.1.2.3.2.5v6.5c0,.2,0,.3-.2.5-.1.1-.3.2-.5.2h-26.2c-.2,0-.3,0-.5-.2Z"/>
      <path class="st0" d="M348.7,52.9c-.1-.1-.2-.3-.2-.5V15.4c0-.2,0-.3.2-.5.1-.1.3-.2.5-.2h7.8c.2,0,.3,0,.5.2.1.1.2.3.2.5v29.7c0,.2,0,.3.3.3h17.5c.2,0,.3,0,.5.2.1.1.2.3.2.5v6.5c0,.2,0,.3-.2.5-.1.1-.3.2-.5.2h-26.2c-.2,0-.3,0-.5-.2Z"/>
    </g>
  </g>
  <polyline class="st1" points="13 25.2 13 34.5 33.8 34.5"/>
  <polyline class="st1" points="13 34.5 13 46.8 20.5 46.8"/>
  <rect class="st4" x="4.3" y="6.6" width="18.6" height="18.6"/>
  <rect class="st4" x="4.3" y="43.8" width="18.6" height="18.6"/>
  <rect class="st2" x="26.8" y="25.2" width="18.6" height="18.6"/>
</svg>